<?xml version="1.0" encoding="UTF-8" standalone="no"?>
<svg
  width="12"
  height="16"
  viewBox="0 0 12 16"
  fill="none"
  xmlns="http://www.w3.org/2000/svg"
>
  <path d="M0.911344 0.0514231C0.633547 0.132053 0.157324 0.565442 0.0722839 0.822452C-0.0240946 1.12481 -0.0240946 14.8132 0.0722839 15.1156C0.162993 15.3928 0.633547 15.811 0.94536 15.8917C1.10977 15.932 1.72773 15.9521 2.94663 15.9521H4.71546L4.85152 15.8262C5.03861 15.6649 5.03861 15.4331 4.85152 15.2718L4.71546 15.1458H2.9523H1.18914L1.05308 15.0199L0.911344 14.8989V8.85526V1.03914L1.05308 0.9182L1.18914 0.792214H5.90035H10.6116L10.7476 0.9182L10.8894 1.03914V8.85526V14.8989L10.7476 15.0199L10.6116 15.1458H8.8484H7.08524L6.94917 15.2718C6.76208 15.4331 6.76208 15.6649 6.94917 15.8262L7.08524 15.9521H8.85406C10.073 15.9521 10.6909 15.932 10.8553 15.8917C11.1842 15.806 11.6377 15.3877 11.7284 15.0955C11.7851 14.9191 11.7964 14.8673 11.7851 8.72423L11.7681 0.807333L11.598 0.560402C11.4903 0.409221 11.3202 0.258039 11.1501 0.16229L10.8723 0.0111084L5.99106 0.00102901C2.53844 -0.0040102 1.05308 0.0111074 0.911344 0.0514231Z" />
</svg>
