<?xml version="1.0" encoding="UTF-8" standalone="no"?>
<!-- Created with Inkscape (http://www.inkscape.org/) -->

<svg
   width="152mm"
   height="36mm"
   viewBox="0 0 152 36"
   version="1.1"
   id="svg1"
   inkscape:version="1.3.2 (091e20e, 2023-11-25, custom)"
   sodipodi:docname="logo.svg"
   xmlns:inkscape="http://www.inkscape.org/namespaces/inkscape"
   xmlns:sodipodi="http://sodipodi.sourceforge.net/DTD/sodipodi-0.dtd"
   xmlns="http://www.w3.org/2000/svg"
   xmlns:svg="http://www.w3.org/2000/svg">
  <sodipodi:namedview
     id="namedview1"
     pagecolor="#ffffff"
     bordercolor="#000000"
     borderopacity="0.25"
     inkscape:showpageshadow="2"
     inkscape:pageopacity="0.0"
     inkscape:pagecheckerboard="0"
     inkscape:deskcolor="#d1d1d1"
     inkscape:document-units="mm"
     inkscape:zoom="2.0157702"
     inkscape:cx="315.26412"
     inkscape:cy="88.799806"
     inkscape:window-width="1920"
     inkscape:window-height="996"
     inkscape:window-x="2552"
     inkscape:window-y="-8"
     inkscape:window-maximized="1"
     inkscape:current-layer="layer1" />
  <defs
     id="defs1" />
  <g
     inkscape:label="Layer 1"
     inkscape:groupmode="layer"
     id="layer1">
    <path
       d="M 2.3547017,7.6218426 6.260228,7.1319508 V 22.318596 l 0.013608,1.034216 q 0,0.925352 0.1088648,1.360811 0.1088648,0.421851 0.4218513,0.707622 0.3810269,0.367418 1.4016348,0.557932 v 0.272162 H 2.2050125 v -0.272162 q 0.8164864,-0.108865 1.1702971,-0.299378 0.3538107,-0.204122 0.5715404,-0.680406 0.1496892,-0.312986 0.2041216,-0.938959 0.06804,-0.639581 0.06804,-1.837094 V 11.540977 q 0,-1.388027 -0.06804,-1.9595673 Q 4.0829311,9.0098693 3.8515933,8.6560586 3.6202555,8.2750316 3.293661,8.1117344 2.9670664,7.9484371 2.3547017,7.9076128 Z m 6.7496204,7.3211604 3.9055259,-0.489891 v 7.865484 l 0.01361,1.034216 q 0,0.925352 0.108865,1.360811 0.108865,0.421851 0.421852,0.707622 0.381027,0.367418 1.401634,0.557932 v 0.272162 H 8.954633 v -0.272162 q 0.8164863,-0.108865 1.170297,-0.299378 0.353811,-0.204122 0.57154,-0.680406 0.14969,-0.312986 0.204122,-0.938959 0.06804,-0.639581 0.06804,-1.837094 v -3.361202 q 0,-1.401635 -0.06804,-1.959568 -0.06804,-0.57154 -0.299378,-0.925351 Q 10.369876,15.596192 10.043281,15.432895 9.7166869,15.25599 9.1043221,15.215165 Z M 11.934808,9.5950179 q -0.530716,0 -0.884527,-0.3402027 -0.340202,-0.3402026 -0.340202,-0.8573106 0,-0.5034999 0.35381,-0.8437026 0.353811,-0.3538107 0.870919,-0.3538107 0.517108,0 0.870919,0.3538107 0.353811,0.3402027 0.353811,0.8437026 0,0.517108 -0.353811,0.8573106 -0.340203,0.3402027 -0.870919,0.3402027 z m 7.280337,5.0894311 h 3.470067 v 0.517108 h -3.470067 v 7.919918 q 0,1.428851 0.489891,2.041216 0.258554,0.340202 0.680406,0.530716 0.421851,0.190513 0.911743,0.190513 0.612364,0 1.020608,-0.244946 0.408243,-0.258554 0.898135,-0.925351 l 0.204121,0.176905 q -0.449067,0.816487 -1.265554,1.211122 -0.802878,0.394635 -2.013999,0.394635 -1.605757,0 -2.340594,-0.625973 -0.394635,-0.326595 -0.517108,-0.775662 -0.122473,-0.462676 -0.122473,-1.646581 v -8.246512 h -1.456068 v -0.217729 q 0.884527,-0.285771 1.632973,-1.102257 0.449068,-0.5035 0.72123,-0.993392 0.272162,-0.5035 0.517108,-1.29277 l 0.136081,-0.449067 h 0.5035 z m 7.225904,0 h 3.470067 v 0.517108 h -3.470067 v 7.919918 q 0,1.428851 0.489892,2.041216 0.258554,0.340202 0.680405,0.530716 0.421851,0.190513 0.911743,0.190513 0.612365,0 1.020608,-0.244946 0.408243,-0.258554 0.898135,-0.925351 l 0.204122,0.176905 q -0.449068,0.816487 -1.265554,1.211122 -0.802878,0.394635 -2.014,0.394635 -1.605756,0 -2.340594,-0.625973 -0.394635,-0.326595 -0.517108,-0.775662 -0.122473,-0.462676 -0.122473,-1.646581 v -8.246512 h -1.456067 v -0.217729 q 0.884527,-0.285771 1.632973,-1.102257 0.449067,-0.5035 0.721229,-0.993392 0.272162,-0.5035 0.517108,-1.29277 l 0.136081,-0.449067 h 0.5035 z M 30.305751,7.6218426 34.211278,7.1319508 V 22.318596 l 0.01361,1.034216 q 0,0.925352 0.108865,1.360811 0.108865,0.421851 0.421851,0.707622 0.381027,0.367418 1.401635,0.557932 v 0.272162 h -6.001175 v -0.272162 q 0.816487,-0.108865 1.170297,-0.299378 0.353811,-0.204122 0.571541,-0.680406 0.149689,-0.312986 0.204121,-0.938959 0.06804,-0.639581 0.06804,-1.837094 V 11.540977 q 0,-1.388027 -0.06804,-1.9595673 Q 32.033981,9.0098693 31.802643,8.6560586 31.571305,8.2750316 31.244711,8.1117344 30.918116,7.9484371 30.305751,7.9076128 Z m 9.47124,11.2266874 q -0.05443,0.666797 -0.05443,0.966175 0,1.183905 0.340202,2.313378 0.353811,1.129473 0.952568,1.877919 0.612364,0.762053 1.510499,1.197513 0.911743,0.435459 1.905135,0.435459 0.734838,0 1.388027,-0.244946 0.666797,-0.244946 1.102256,-0.680405 0.489892,-0.476284 0.843703,-1.524108 l 0.272162,0.09526 q -0.353811,1.592148 -1.524108,2.408635 -1.156689,0.802878 -3.08904,0.802878 -1.673797,0 -2.87131,-0.530716 -1.197513,-0.530716 -2.027608,-1.632973 -1.156689,-1.537716 -1.156689,-3.783053 0,-3.061824 2.190905,-4.803661 1.592149,-1.265554 3.633365,-1.265554 1.088648,0 2.013999,0.394635 0.925351,0.381027 1.564932,1.115864 0.993392,1.143081 0.993392,2.857703 z m 5.96035,-0.530717 q -0.09526,-1.36081 -0.5035,-2.095648 -0.367418,-0.666797 -0.979783,-1.047824 -0.612365,-0.394635 -1.306378,-0.394635 -1.170297,0 -2.054824,1.007 -0.870919,1.007 -1.034216,2.531107 z m 4.191299,2.190905 q 0,-2.204513 1.632973,-3.932742 1.986783,-2.095648 4.749229,-2.095648 2.762445,0 4.73562,2.095648 1.632973,1.741837 1.632973,3.946351 0,2.177296 -1.551324,3.87831 -1.905135,2.095648 -4.817269,2.095648 -2.912135,0 -4.830878,-2.095648 Q 50.731518,23.58415 50.323275,22.57715 49.92864,21.570151 49.92864,20.508718 Z m 2.476675,-0.149689 q 0,2.367811 1.061433,4.014391 1.197513,1.837095 2.925742,1.837095 0.734838,0 1.428851,-0.408244 0.694014,-0.408243 1.197514,-1.14308 0.530716,-0.762054 0.85731,-1.905135 0.326595,-1.156689 0.326595,-2.231729 0,-1.115865 -0.353811,-2.245338 -0.340203,-1.143081 -0.925351,-1.959567 -1.115865,-1.537716 -2.735229,-1.537716 -1.537716,0 -2.653581,1.619365 -1.129473,1.619364 -1.129473,3.959958 z m 15.349943,-5.905917 q 0.190513,0.78927 0.190513,1.469675 v 0.21773 q 1.687405,-1.660189 4.014391,-1.660189 1.741838,0 2.80327,0.816486 1.047824,0.802878 1.047824,2.286162 v 5.769836 q 0,0.925352 0.108865,1.360811 0.108865,0.421851 0.421851,0.707622 0.381027,0.367418 1.401635,0.557932 v 0.272162 h -6.001175 v -0.272162 q 0.816487,-0.108865 1.170298,-0.299378 0.35381,-0.204122 0.57154,-0.680406 0.149689,-0.312986 0.204122,-0.938959 0.06804,-0.639581 0.06804,-1.823486 v -2.884919 q 0,-1.483283 -0.108865,-2.177296 -0.09526,-0.694014 -0.381027,-1.115865 -0.312986,-0.476284 -0.898135,-0.734838 -0.585148,-0.272162 -1.29277,-0.272162 -0.762054,0 -1.428851,0.299378 -0.653189,0.299379 -1.034216,0.816487 -0.408243,0.544324 -0.544324,1.238337 -0.122473,0.680406 -0.122473,2.272554 v 2.667189 l 0.01361,1.006999 q 0,0.925352 0.108865,1.360811 0.108865,0.421851 0.421851,0.707622 0.381027,0.367418 1.401635,0.557932 v 0.272162 h -6.001174 v -0.272162 q 0.816486,-0.108865 1.170297,-0.299378 0.35381,-0.204122 0.57154,-0.680406 0.149689,-0.312986 0.204122,-0.938959 0.06804,-0.639581 0.06804,-1.837094 v -3.361202 q 0,-1.401635 -0.06804,-1.959568 -0.06804,-0.57154 -0.299379,-0.925351 -0.231337,-0.381027 -0.557932,-0.544324 -0.326595,-0.176905 -0.938959,-0.21773 V 14.943003 Z M 81.26811,18.84853 q -0.05443,0.666797 -0.05443,0.966175 0,1.183905 0.340203,2.313378 0.35381,1.129473 0.952567,1.877919 0.612365,0.762053 1.5105,1.197513 0.911743,0.435459 1.905135,0.435459 0.734837,0 1.388026,-0.244946 0.666798,-0.244946 1.102257,-0.680405 0.489892,-0.476284 0.843702,-1.524108 l 0.272163,0.09526 q -0.353811,1.592148 -1.524108,2.408635 -1.156689,0.802878 -3.08904,0.802878 -1.673797,0 -2.87131,-0.530716 -1.197514,-0.530716 -2.027608,-1.632973 -1.156689,-1.537716 -1.156689,-3.783053 0,-3.061824 2.190905,-4.803661 1.592148,-1.265554 3.633364,-1.265554 1.088648,0 2.014,0.394635 0.925351,0.381027 1.564932,1.115864 0.993391,1.143081 0.993391,2.857703 z m 5.960351,-0.530717 q -0.09526,-1.36081 -0.5035,-2.095648 -0.367419,-0.666797 -0.979784,-1.047824 -0.612365,-0.394635 -1.306378,-0.394635 -1.170297,0 -2.054824,1.007 -0.870919,1.007 -1.034216,2.531107 z m 11.634925,7.933526 v -3.851094 h 0.217729 q 0.381027,1.415243 0.952565,2.258946 1.04783,1.537716 2.44946,1.537716 0.85731,0 1.48329,-0.517108 0.6804,-0.571541 0.6804,-1.619365 0,-0.857311 -0.48989,-1.496892 -0.27216,-0.340202 -0.69401,-0.625972 -0.40825,-0.285771 -1.38803,-0.802879 -1.71462,-0.911743 -2.286163,-1.524108 -0.816487,-0.870918 -0.816487,-2.013999 0,-1.22473 0.816487,-2.109256 0.938963,-1.007 2.490283,-1.007 0.69401,0 1.29277,0.244946 l 0.46268,0.204121 q 0.21773,0.08165 0.38102,0.08165 0.25856,0 0.48989,-0.408243 h 0.27217 l 0.14969,3.08904 h -0.28577 q -0.14969,-0.653189 -0.3266,-1.047825 -0.1633,-0.394635 -0.47628,-0.762053 -0.42185,-0.517108 -0.97979,-0.802879 -0.55793,-0.299378 -1.10225,-0.299378 -0.76206,0 -1.30638,0.557932 -0.53072,0.544325 -0.53072,1.347203 0,0.666797 0.47629,1.211121 0.48989,0.530716 1.49689,0.979784 l 1.44246,0.653189 q 1.29277,0.585148 1.93235,1.456067 0.63958,0.870919 0.63958,2.054824 0,1.428851 -0.92535,2.36781 -1.06143,1.088649 -2.72162,1.088649 -0.89814,0 -1.82349,-0.353811 -0.59876,-0.231338 -0.72123,-0.258554 -0.122472,-0.04082 -0.312985,-0.04082 -0.476284,0 -0.72123,0.408243 z M 111.83191,7.1319508 v 9.3215522 q 0.47629,-0.585149 0.84371,-0.911743 0.36742,-0.326595 0.88452,-0.57154 0.99339,-0.489892 2.25895,-0.489892 1.60576,0 2.65358,0.639581 0.74845,0.476283 1.02061,1.170297 0.28577,0.680405 0.28577,2.054824 v 3.973566 l 0.0136,1.034216 q 0,0.925352 0.10886,1.360811 0.10887,0.421851 0.42185,0.707622 0.38103,0.367418 1.40164,0.557932 v 0.272162 h -6.00118 v -0.272162 q 0.72123,-0.09526 1.02061,-0.231338 0.31299,-0.136081 0.55793,-0.462676 0.24495,-0.340202 0.3402,-0.925351 0.0953,-0.585148 0.0953,-1.728229 v -4.31377 q 0,-0.979783 -0.14969,-1.551324 -0.14969,-0.57154 -0.5035,-0.993391 -0.69401,-0.802878 -1.95956,-0.802878 -3.29317,0 -3.29317,5.198296 v 2.177297 l 0.0136,1.006999 q 0,0.925352 0.10887,1.360811 0.10886,0.421851 0.42185,0.707622 0.38102,0.367418 1.40163,0.557932 v 0.272162 h -6.00117 v -0.272162 q 0.81648,-0.108865 1.1703,-0.299378 0.35381,-0.204122 0.57154,-0.680406 0.14968,-0.312986 0.20412,-0.938959 0.068,-0.639581 0.068,-1.837094 V 11.540977 q 0,-1.388027 -0.068,-1.9595673 -0.068,-0.5715404 -0.29938,-0.9253511 -0.23134,-0.381027 -0.55793,-0.5443242 -0.3266,-0.1632973 -0.93896,-0.2041216 V 7.6218426 Z m 11.00896,13.3767672 q 0,-2.204513 1.63297,-3.932742 1.98678,-2.095648 4.74923,-2.095648 2.76244,0 4.73562,2.095648 1.63297,1.741837 1.63297,3.946351 0,2.177296 -1.55132,3.87831 -1.90514,2.095648 -4.81727,2.095648 -2.91214,0 -4.83088,-2.095648 -0.74844,-0.816487 -1.15669,-1.823487 -0.39463,-1.006999 -0.39463,-2.068432 z m 2.47667,-0.149689 q 0,2.367811 1.06144,4.014391 1.19751,1.837095 2.92574,1.837095 0.73484,0 1.42885,-0.408244 0.69401,-0.408243 1.19751,-1.14308 0.53072,-0.762054 0.85731,-1.905135 0.3266,-1.156689 0.3266,-2.231729 0,-1.115865 -0.35381,-2.245338 -0.34021,-1.143081 -0.92535,-1.959567 -1.11587,-1.537716 -2.73523,-1.537716 -1.53772,0 -2.65358,1.619365 -1.12948,1.619364 -1.12948,3.959958 z m 15.63572,4.749229 0.0136,2.503892 v 0.938959 q 0,0.925351 0.10887,1.347202 0.10886,0.43546 0.42185,0.734838 0.38102,0.367419 1.40163,0.544324 v 0.272162 h -6.00117 v -0.272162 q 0.81648,-0.108865 1.17029,-0.299378 0.35382,-0.190514 0.57155,-0.666797 0.14968,-0.312987 0.20412,-0.952568 0.068,-0.639581 0.068,-1.823486 v -9.403201 q 0,-1.537716 -0.48989,-2.190905 -0.47629,-0.653189 -1.61937,-0.653189 v -0.340202 l 3.95996,-0.557933 q 0.14969,0.653189 0.14969,1.197514 v 0.258554 q 1.007,-0.680406 1.89153,-0.966176 0.88452,-0.299378 1.91874,-0.299378 2.06843,0 3.53811,1.238337 0.92535,0.78927 1.42885,1.973176 0.5035,1.183905 0.5035,2.612756 0,1.483283 -0.54433,2.762445 -0.53071,1.279162 -1.52411,2.109257 -1.55132,1.319986 -3.68779,1.319986 -1.02061,0 -1.76906,-0.299378 -0.73483,-0.299379 -1.71462,-1.088649 z m 0,-4.517891 q 0,1.877919 0.1633,2.830486 0.1633,0.952567 0.58515,1.537716 0.38103,0.517108 0.99339,0.830094 0.62597,0.312987 1.26555,0.312987 1.44246,0 2.5175,-1.360811 0.65319,-0.816486 1.007,-1.932351 0.35381,-1.115864 0.35381,-2.326986 0,-1.170297 -0.3402,-2.286161 -0.32659,-1.129473 -0.92535,-1.932351 -1.02061,-1.388027 -2.49028,-1.388027 -0.72123,0 -1.36081,0.353811 -0.63958,0.35381 -1.02061,0.966175 -0.42185,0.653189 -0.58515,1.632973 -0.1633,0.966175 -0.1633,2.762445 z"
       id="text1"
       style="font-size:27.8694px;font-family:'Baskerville Old Face';-inkscape-font-specification:'Baskerville Old Face, Normal';fill:#4d4d4d;stroke-width:0.264583"
       aria-label="littleone shop" />
  </g>
</svg>
